HIERARCHY
ROOT Hips
{
	OFFSET 0.00 86.18 0.00
	CHANNELS 6 Xposition Yposition Zposition Yrotation Xrotation Zrotation
	JOINT RightUpLeg
	{
		OFFSET -9.25 0.00 0.00
		CHANNELS 6 Xposition Yposition Zposition Yrotation Xrotation Zrotation
		JOINT RightLeg
		{
			OFFSET 0.00 -42.00 0.00
			CHANNELS 6 Xposition Yposition Zposition Yrotation Xrotation Zrotation
			JOINT RightFoot
			{
				OFFSET 0.00 -42.00 0.00
				CHANNELS 6 Xposition Yposition Zposition Yrotation Xrotation Zrotation
				End Site
				{
					OFFSET 0 -1.14 11.36
				}
			}
		}
	}
	JOINT LeftUpLeg
	{
		OFFSET 9.25 0.00 0.00
		CHANNELS 6 Xposition Yposition Zposition Yrotation Xrotation Zrotation
		JOINT LeftLeg
		{
			OFFSET 0.00 -42.00 0.00
			CHANNELS 6 Xposition Yposition Zposition Yrotation Xrotation Zrotation
			JOINT LeftFoot
			{
				OFFSET 0.00 -42.00 0.00
				CHANNELS 6 Xposition Yposition Zposition Yrotation Xrotation Zrotation
				End Site
				{
					OFFSET 0 -1.14 11.36
				}
			}
		}
	}
	JOINT Spine
	{
		OFFSET 0.00 10.46 0.00
		CHANNELS 6 Xposition Yposition Zposition Yrotation Xrotation Zrotation
		JOINT Spine1
		{
			OFFSET 0.00 9.75 0.00
			CHANNELS 6 Xposition Yposition Zposition Yrotation Xrotation Zrotation
			JOINT Spine2
			{
				OFFSET 0.00 10.15 0.00
				CHANNELS 6 Xposition Yposition Zposition Yrotation Xrotation Zrotation
				JOINT Spine3
				{
					OFFSET 0.00 9.75 0.00
					CHANNELS 6 Xposition Yposition Zposition Yrotation Xrotation Zrotation
			 		JOINT Neck
					{
						OFFSET 0.00 10.42 0.00
						CHANNELS 6 Xposition Yposition Zposition Yrotation Xrotation Zrotation
						JOINT Head
						{
							OFFSET 0.00 9.50 0.00
							CHANNELS 6 Xposition Yposition Zposition Yrotation Xrotation Zrotation
							End Site
							{
								OFFSET 0 16.00 0
							}
						}    
					} 
					JOINT RightShoulder
	 					{
						OFFSET -3.20 6.94 0.00
						CHANNELS 6 Xposition Yposition Zposition Yrotation Xrotation Zrotation
						JOINT RightArm
						{
							OFFSET -16.00 0.00 0.00
							CHANNELS 6 Xposition Yposition Zposition Yrotation Xrotation Zrotation
							JOINT RightForeArm
							{
								OFFSET -26.50 0.00 0.00
								CHANNELS 6 Xposition Yposition Zposition Yrotation Xrotation Zrotation
								JOINT RightHand
								{
									OFFSET -26.00 0.00 0.00
									CHANNELS 6 Xposition Yposition Zposition Yrotation Xrotation Zrotation
									End Site
									{
										OFFSET -17.50 0 0
									}
								}
							}
						}	
					}
					JOINT LeftShoulder
					{
						OFFSET 3.20 6.94 0.00
						CHANNELS 6 Xposition Yposition Zposition Yrotation Xrotation Zrotation
						JOINT LeftArm
						{
							OFFSET 16.00 0.00 0.00
							CHANNELS 6 Xposition Yposition Zposition Yrotation Xrotation Zrotation
							JOINT LeftForeArm
							{
								OFFSET 26.50 0.00 0.00
								CHANNELS 6 Xposition Yposition Zposition Yrotation Xrotation Zrotation
								JOINT LeftHand
								{
									OFFSET 26.00 0.00 0.00
									CHANNELS 6 Xposition Yposition Zposition Yrotation Xrotation Zrotation
									End Site
									{
										OFFSET 17.50 0 0
									}
								}
							}
						}
					}     			
				}
			}
		} 
	} 
}
MOTION
Frames: 14
Frame Time: 0.010
298.53 12.31 28.26 -17.80 -41.19 13.90 -9.37 -0.03 -0.05 -38.93 -47.21 13.77 -0.05 -42.07 0.02 130.24 35.09 170.34 -0.81 -41.68 2.64 10.37 15.49 24.55 9.33 0.13 -0.01 -40.64 -68.82 55.77 0.19 -42.06 0.03 61.99 72.23 30.49 2.37 -40.32 0.99 -11.05 36.76 -14.66 -0.20 10.45 -0.06 -7.77 45.33 -4.16 -0.33 9.73 -0.03 -1.62 12.14 -0.48 -0.23 10.14 0.04 -2.66 16.44 -0.84 -0.15 9.74 0.01 2.35 -0.52 0.06 -0.17 10.47 0.59 12.44 -0.58 -0.33 -0.22 9.45 0.19 37.34 -10.51 -2.63 -3.34 6.94 0.03 0.35 -3.18 -1.91 -15.95 -0.04 0.03 8.14 -9.78 53.03 -26.45 -0.14 0.07 41.99 10.55 -8.29 -26.02 -0.13 0.04 -6.91 14.36 -36.69 3.07 6.94 -0.06 -9.33 -10.36 -2.77 16.06 0.04 -0.16 -10.47 -9.95 -43.54 26.50 0.08 -0.17 -64.72 -4.74 19.41 25.99 0.07 -0.05 -10.52 -19.60 2.15 
298.59 12.30 28.26 -17.47 -41.25 13.67 -9.36 -0.03 -0.04 -39.06 -47.29 13.76 -0.04 -42.06 0.03 130.40 35.05 170.43 -0.81 -41.65 2.64 10.64 15.34 24.62 9.32 0.13 -0.01 -40.52 -68.84 55.62 0.19 -42.05 0.03 61.86 72.19 30.23 2.34 -40.29 0.97 -10.70 36.61 -14.65 -0.21 10.45 -0.06 -7.37 45.30 -3.95 -0.34 9.73 -0.03 -1.53 12.12 -0.46 -0.23 10.14 0.04 -2.52 16.42 -0.80 -0.15 9.74 0.01 2.25 -0.50 0.10 -0.26 10.47 0.61 9.31 -0.55 -0.10 -0.26 9.46 0.15 37.51 -10.52 -1.81 -3.34 6.94 0.03 0.55 -3.27 -1.79 -15.95 -0.04 0.03 7.58 -9.45 53.10 -26.45 -0.14 0.07 41.89 10.36 -8.30 -26.02 -0.13 0.03 -6.94 14.25 -36.62 3.07 6.94 -0.05 -9.13 -9.82 -2.67 16.06 0.02 -0.16 -11.37 -10.67 -43.42 26.50 0.08 -0.16 -64.41 -4.95 19.39 25.99 0.07 -0.04 -10.48 -19.29 2.19 
298.65 12.28 28.27 -17.12 -41.32 13.49 -9.36 -0.02 -0.04 -39.13 -47.40 13.69 -0.03 -42.06 0.03 130.51 34.98 170.50 -0.83 -41.62 2.65 10.99 15.16 24.68 9.34 0.13 -0.01 -40.22 -68.94 55.21 0.21 -42.05 0.02 61.78 72.10 30.08 2.30 -40.26 0.94 -10.35 36.46 -14.65 -0.20 10.45 -0.05 -7.11 45.24 -3.85 -0.34 9.73 -0.04 -1.48 12.09 -0.45 -0.22 10.14 0.04 -2.44 16.39 -0.78 -0.15 9.74 0.02 2.11 -0.49 0.13 -0.35 10.47 0.62 5.73 -0.52 0.07 -0.30 9.47 0.12 37.25 -10.64 -0.95 -3.33 6.95 0.04 0.85 -3.38 -1.64 -15.95 -0.03 0.03 7.14 -9.09 53.08 -26.45 -0.14 0.07 41.68 10.17 -8.30 -26.02 -0.13 0.02 -6.99 14.13 -36.52 3.07 6.94 -0.05 -8.82 -9.27 -2.68 16.06 0.02 -0.15 -12.14 -11.37 -43.27 26.50 0.09 -0.16 -64.16 -4.93 19.23 25.99 0.08 -0.05 -10.44 -19.09 2.33 
298.72 12.27 28.28 -16.76 -41.35 13.25 -9.36 -0.03 -0.04 -39.22 -47.54 13.67 -0.03 -42.06 0.02 130.60 34.90 170.60 -0.83 -41.59 2.65 11.11 15.01 24.72 9.35 0.14 -0.01 -40.07 -69.03 54.97 0.22 -42.05 0.03 61.64 72.05 29.88 2.28 -40.22 0.92 -10.11 36.32 -14.59 -0.21 10.45 -0.06 -6.82 45.17 -3.71 -0.34 9.74 -0.04 -1.42 12.06 -0.44 -0.21 10.14 0.03 -2.35 16.37 -0.76 -0.14 9.74 0.02 1.92 -0.49 0.17 -0.45 10.47 0.60 2.00 -0.50 0.17 -0.33 9.48 0.08 36.13 -10.91 0.10 -3.33 6.95 0.04 1.13 -3.47 -1.55 -15.94 -0.03 0.03 6.79 -8.86 53.06 -26.45 -0.15 0.07 41.32 9.95 -8.24 -26.02 -0.13 0.01 -6.90 14.05 -36.50 3.08 6.95 -0.04 -8.50 -9.00 -2.72 16.07 0.03 -0.14 -12.79 -11.75 -43.13 26.51 0.10 -0.16 -64.02 -4.83 19.08 25.99 0.09 -0.05 -10.40 -18.97 2.44 
298.78 12.26 28.29 -16.39 -41.36 13.00 -9.35 -0.03 -0.04 -39.35 -47.66 13.65 -0.02 -42.05 0.02 130.66 34.81 170.66 -0.83 -41.57 2.65 11.30 14.87 24.74 9.35 0.15 -0.01 -39.97 -69.13 54.76 0.23 -42.05 0.03 61.49 72.03 29.68 2.25 -40.18 0.91 -9.74 36.12 -14.53 -0.21 10.46 -0.06 -6.55 45.11 -3.60 -0.33 9.75 -0.04 -1.37 12.04 -0.43 -0.21 10.14 0.03 -2.26 16.34 -0.75 -0.14 9.74 0.02 1.68 -0.50 0.22 -0.54 10.46 0.56 1.70 -0.51 0.22 -0.36 9.50 0.07 30.79 -11.26 1.33 -3.32 6.95 0.04 1.40 -3.46 -1.50 -15.93 -0.03 0.03 6.52 -8.85 53.10 -26.45 -0.15 0.07 40.86 9.70 -8.12 -26.02 -0.14 0.01 -6.85 14.04 -36.52 3.08 6.95 -0.04 -8.17 -8.80 -2.78 16.07 0.04 -0.13 -13.34 -11.94 -42.95 26.51 0.10 -0.15 -63.99 -4.70 19.00 25.99 0.10 -0.06 -10.38 -18.95 2.48 
298.84 12.26 28.30 -16.03 -41.38 12.78 -9.32 -0.02 -0.02 -39.50 -47.78 13.60 0.01 -42.05 0.03 130.71 34.69 170.66 -0.84 -41.56 2.65 11.47 14.71 24.76 9.36 0.15 -0.02 -39.85 -69.23 54.55 0.24 -42.05 0.03 61.39 71.98 29.54 2.22 -40.15 0.88 -9.49 35.91 -14.54 -0.20 10.46 -0.06 -6.33 45.05 -3.53 -0.32 9.75 -0.04 -1.33 12.02 -0.43 -0.19 10.14 0.02 -2.20 16.32 -0.74 -0.13 9.74 0.02 1.39 -0.52 0.26 -0.61 10.45 0.50 1.40 -0.53 0.27 -0.37 9.51 0.07 24.79 -11.61 2.64 -3.32 6.95 0.04 1.67 -3.37 -1.54 -15.93 -0.04 0.03 6.31 -9.03 53.22 -26.44 -0.16 0.07 40.32 9.42 -7.96 -26.02 -0.14 0.02 -6.78 14.07 -36.49 3.09 6.90 -0.08 -8.21 -8.63 -2.42 16.08 -0.01 -0.18 -13.33 -12.12 -43.11 26.52 0.10 -0.14 -64.10 -4.67 19.01 25.99 0.10 -0.06 -10.36 -18.91 2.50 
298.89 12.26 28.32 -15.70 -41.41 12.57 -9.32 -0.02 -0.02 -39.60 -47.89 13.57 0.01 -42.05 0.03 130.73 34.63 170.70 -0.85 -41.56 2.63 11.59 14.58 24.75 9.36 0.14 -0.02 -39.67 -69.34 54.32 0.22 -42.05 0.03 61.31 71.99 29.42 2.21 -40.09 0.86 -9.24 35.68 -14.53 -0.19 10.46 -0.06 -6.26 45.01 -3.58 -0.30 9.75 -0.04 -1.31 12.00 -0.45 -0.17 10.14 0.02 -2.19 16.31 -0.77 -0.13 9.74 0.02 1.08 -0.55 0.31 -0.66 10.45 0.44 1.08 -0.56 0.31 -0.35 9.52 0.10 18.50 -11.79 3.90 -3.32 6.95 0.04 2.03 -3.27 -1.61 -15.92 -0.04 0.03 6.19 -9.31 53.37 -26.44 -0.15 0.07 39.78 9.16 -7.70 -26.01 -0.13 0.03 -6.75 14.11 -36.50 3.09 6.84 -0.12 -8.05 -8.48 -2.08 16.08 -0.06 -0.22 -13.29 -12.21 -43.26 26.52 0.09 -0.13 -64.29 -4.59 19.04 25.99 0.10 -0.07 -10.34 -18.99 2.52 
298.93 12.26 28.35 -15.36 -41.46 12.37 -9.30 -0.01 -0.01 -39.70 -47.99 13.48 0.02 -42.05 0.03 130.72 34.56 170.69 -0.87 -41.57 2.61 11.76 14.43 24.77 9.35 0.12 -0.01 -39.49 -69.44 54.09 0.20 -42.05 0.03 61.36 71.99 29.43 2.20 -40.04 0.84 -9.15 35.42 -14.60 -0.18 10.46 -0.06 -6.20 45.00 -3.66 -0.28 9.76 -0.04 -1.31 11.99 -0.47 -0.16 10.14 0.02 -2.19 16.30 -0.80 -0.13 9.74 0.02 0.74 -0.57 0.33 -0.66 10.44 0.37 0.73 -0.58 0.33 -0.32 9.51 0.15 12.03 -11.75 4.94 -3.32 6.94 0.04 2.37 -3.19 -1.64 -15.92 -0.04 0.03 6.13 -9.65 53.56 -26.44 -0.15 0.08 39.20 8.93 -7.51 -26.01 -0.13 0.04 -6.69 14.14 -36.44 3.09 6.85 -0.11 -7.47 -8.36 -2.11 16.08 -0.05 -0.20 -13.66 -12.15 -43.06 26.52 0.08 -0.12 -64.51 -4.53 19.13 25.99 0.08 -0.07 -10.33 -19.18 2.50 
298.96 12.25 28.37 -15.08 -41.50 12.21 -9.28 -0.00 0.00 -39.77 -48.10 13.39 0.04 -42.05 0.03 130.66 34.47 170.65 -0.87 -41.58 2.58 11.75 14.29 24.80 9.33 0.10 -0.01 -39.26 -69.53 53.92 0.17 -42.04 0.03 61.45 71.97 29.47 2.18 -39.99 0.80 -9.11 35.16 -14.73 -0.16 10.46 -0.06 -6.15 45.00 -3.73 -0.25 9.76 -0.05 -1.30 11.99 -0.49 -0.14 10.14 0.02 -2.19 16.29 -0.84 -0.12 9.74 0.01 0.38 -0.60 0.33 -0.60 10.43 0.31 0.38 -0.60 0.33 -0.26 9.50 0.20 5.63 -11.46 5.48 -3.31 6.94 0.03 2.68 -3.12 -1.68 -15.93 -0.04 0.03 6.17 -9.98 53.74 -26.43 -0.15 0.09 38.64 8.65 -7.37 -26.01 -0.13 0.06 -6.61 14.16 -36.35 3.10 6.87 -0.11 -6.93 -8.24 -2.17 16.08 -0.05 -0.18 -13.91 -12.10 -42.85 26.52 0.06 -0.10 -64.76 -4.47 19.25 25.99 0.07 -0.06 -10.30 -19.43 2.46 
298.99 12.24 28.40 -14.84 -41.54 12.07 -9.27 0.01 0.01 -39.84 -48.20 13.33 0.05 -42.05 0.03 130.57 34.36 170.58 -0.87 -41.60 2.57 11.81 14.12 24.81 9.31 0.08 -0.01 -38.96 -69.64 53.71 0.13 -42.02 0.03 61.52 71.94 29.51 2.17 -39.93 0.74 -9.08 34.94 -14.82 -0.14 10.46 -0.06 -6.07 45.00 -3.78 -0.23 9.76 -0.05 -1.29 11.99 -0.50 -0.13 10.14 0.02 -2.18 16.29 -0.86 -0.12 9.74 0.01 0.02 -0.60 0.30 -0.53 10.42 0.26 0.02 -0.60 0.30 -0.21 9.49 0.24 -0.65 -10.89 5.60 -3.30 6.94 0.02 2.90 -3.22 -1.68 -15.93 -0.03 0.03 6.34 -10.11 53.91 -26.42 -0.15 0.11 38.09 8.30 -7.33 -26.01 -0.13 0.08 -6.55 14.13 -36.20 3.10 6.88 -0.10 -6.57 -8.10 -2.17 16.08 -0.04 -0.16 -13.92 -12.13 -42.68 26.52 0.04 -0.09 -65.03 -4.38 19.32 25.99 0.04 -0.05 -10.26 -19.68 2.38 
299.01 12.22 28.43 -14.63 -41.58 11.93 -9.26 0.02 0.02 -39.93 -48.29 13.32 0.06 -42.05 0.03 130.47 34.25 170.52 -0.87 -41.62 2.56 11.77 13.98 24.84 9.29 0.06 -0.00 -38.67 -69.77 53.50 0.11 -42.02 0.02 61.57 71.99 29.54 2.19 -39.88 0.72 -9.06 34.71 -14.90 -0.12 10.46 -0.06 -6.03 45.02 -3.85 -0.20 9.76 -0.05 -1.28 11.99 -0.52 -0.13 10.14 0.02 -2.18 16.29 -0.89 -0.13 9.74 0.01 -0.31 -0.59 0.26 -0.45 10.43 0.23 -0.31 -0.59 0.26 -0.15 9.48 0.25 -6.44 -10.22 5.32 -3.30 6.94 0.02 3.05 -3.30 -1.69 -15.94 -0.03 0.03 6.72 -10.22 54.04 -26.41 -0.14 0.13 37.61 7.85 -7.35 -26.01 -0.12 0.09 -6.51 14.07 -36.06 3.10 6.89 -0.09 -6.25 -8.04 -2.18 16.07 -0.03 -0.14 -13.83 -12.02 -42.54 26.52 0.04 -0.08 -65.37 -4.32 19.36 25.99 0.04 -0.05 -10.23 -19.92 2.39 
299.04 12.20 28.46 -14.39 -41.63 11.68 -9.26 0.02 0.01 -40.16 -48.31 13.44 0.07 -42.05 0.02 130.36 34.13 170.45 -0.88 -41.64 2.57 11.78 13.82 24.87 9.29 0.05 -0.00 -38.62 -69.86 53.47 0.10 -42.01 0.02 61.74 71.92 29.75 2.20 -39.83 0.67 -9.06 34.50 -15.05 -0.10 10.46 -0.06 -6.07 45.07 -3.86 -0.17 9.76 -0.05 -1.29 12.01 -0.52 -0.11 10.14 0.02 -2.19 16.30 -0.89 -0.12 9.74 0.00 -0.62 -0.57 0.21 -0.35 10.43 0.20 -0.62 -0.57 0.21 -0.07 9.47 0.24 -11.82 -9.64 4.86 -3.29 6.94 0.02 3.26 -3.44 -1.77 -15.95 -0.03 0.03 7.19 -10.26 54.13 -26.42 -0.13 0.12 37.33 7.40 -7.41 -26.01 -0.13 0.08 -6.66 13.94 -35.96 3.11 6.96 -0.14 -6.37 -7.66 -2.74 16.07 0.05 -0.17 -13.32 -12.17 -41.81 26.52 0.02 -0.06 -65.69 -4.32 19.49 25.99 0.01 -0.04 -10.24 -20.18 2.29 
299.06 12.16 28.49 -14.17 -41.69 11.48 -9.26 0.03 0.02 -40.29 -48.36 13.43 0.09 -42.06 0.03 130.18 34.00 170.34 -0.88 -41.67 2.57 11.74 13.68 24.97 9.28 0.03 -0.00 -38.56 -69.99 53.42 0.08 -41.98 0.01 61.85 71.90 29.92 2.22 -39.79 0.63 -8.99 34.36 -15.13 -0.07 10.46 -0.05 -6.12 45.12 -3.92 -0.13 9.75 -0.04 -1.30 12.02 -0.53 -0.10 10.14 0.02 -2.21 16.31 -0.90 -0.12 9.74 0.00 -0.91 -0.54 0.16 -0.24 10.44 0.17 -0.91 -0.55 0.16 0.02 9.47 0.21 -16.89 -9.21 4.30 -3.28 6.94 0.02 3.41 -3.51 -1.75 -15.95 -0.02 0.04 7.70 -10.31 54.14 -26.42 -0.13 0.13 37.02 6.89 -7.55 -26.01 -0.12 0.10 -6.73 13.76 -35.72 3.12 6.96 -0.13 -6.21 -7.63 -2.68 16.06 0.05 -0.16 -12.93 -12.08 -41.80 26.51 -0.00 -0.04 -66.02 -4.37 19.61 25.99 -0.01 -0.04 -10.25 -20.43 2.16 
299.08 12.12 28.53 -13.95 -41.74 11.27 -9.25 0.04 0.02 -40.42 -48.40 13.42 0.10 -42.06 0.03 130.01 33.88 170.26 -0.86 -41.70 2.58 11.57 13.58 25.08 9.27 0.01 -0.00 -38.58 -70.13 53.45 0.05 -41.96 0.00 61.98 71.87 30.14 2.23 -39.74 0.58 -8.89 34.28 -15.11 -0.05 10.46 -0.05 -6.23 45.17 -3.98 -0.10 9.75 -0.03 -1.32 12.04 -0.54 -0.09 10.14 0.02 -2.25 16.32 -0.92 -0.11 9.74 0.00 -1.12 -0.53 0.11 -0.13 10.45 0.16 -1.13 -0.53 0.11 0.15 9.47 0.18 -20.74 -9.07 3.70 -3.28 6.94 0.02 3.60 -3.52 -1.79 -15.95 -0.01 0.04 8.11 -10.41 54.16 -26.41 -0.12 0.15 36.79 6.46 -7.67 -26.01 -0.13 0.11 -6.79 13.58 -35.48 3.12 6.96 -0.12 -6.11 -7.48 -2.58 16.05 0.05 -0.15 -12.46 -12.14 -41.84 26.51 -0.01 -0.03 -66.35 -4.43 19.61 25.99 -0.01 -0.04 -10.25 -20.73 2.13 
